<svg width="88" height="88" viewBox="0 0 88 88" fill="none" xmlns="http://www.w3.org/2000/svg">
<g clip-path="url(#clip0_5199_50404)">
<path d="M0 44C0 19.6995 19.6995 0 44 0C68.3007 0 88 19.6995 88 44C88 68.3007 68.3007 88 44 88C19.6995 88 0 68.3007 0 44Z" fill="url(#paint0_linear_5199_50404)"/>
<path d="M53.5764 61.9432C53.5764 65.4722 53.0482 68.1228 52.0065 69.8208C50.9523 71.5391 49.7612 72.2405 47.8956 72.2405C46.5074 72.2405 45.3384 71.5202 44.7687 70.3143C43.8626 68.396 44.6067 65.8793 46.7579 63.5815C48.4252 61.8002 50.8813 59.6505 53.5764 57.4029V61.9432ZM61.7212 47.1254C60.0475 48.5392 58.168 50.0708 56.3504 51.5513C56.3485 51.5526 56.3462 51.5545 56.3444 51.5559V39.2865C56.3444 38.6578 55.9181 38.1086 55.3082 37.9509C54.697 37.7931 54.0571 38.0663 53.7512 38.6154C53.7143 38.6817 50.0426 45.2471 47.7659 48.1929C44.0734 52.9697 40.7251 55.1 36.908 55.1C30.8429 55.1 26.768 49.2618 26.768 40.572C26.768 34.2958 28.3979 28.6498 31.4809 24.2442C35.0885 19.0898 40.5087 15.7595 45.2895 15.7595C51.1516 15.7595 53.7761 20.1504 53.7761 24.5022C53.7761 29.1548 51.1987 33.4887 46.5189 36.7045C45.8897 37.1368 45.731 37.9959 46.1651 38.6233C46.5987 39.2506 47.4605 39.4093 48.0893 38.9765C53.5418 35.2299 56.5441 30.0898 56.5441 24.5022C56.5441 17.7299 51.9156 13 45.2895 13C39.5445 13 33.3835 16.7033 29.2117 22.6648C25.802 27.5363 24 33.7283 24 40.572C24 50.7505 29.3081 57.8596 36.908 57.8596C43.0751 57.8596 47.3097 53.304 49.9582 49.8771C51.0538 48.4601 52.4106 46.3288 53.5764 44.404V53.8173C50.1381 56.6421 46.8668 59.4205 44.7341 61.6986C41.782 64.8518 40.8589 68.5119 42.2641 71.4899C43.2869 73.6547 45.445 75 47.8956 75C50.7461 75 52.8032 73.8116 54.368 71.2604C55.698 69.0923 56.3444 66.0448 56.3444 61.9432V55.1212C56.9298 54.6433 57.5171 54.1645 58.102 53.6881C59.9294 52.1997 61.8181 50.6608 63.5107 49.23C64.0943 48.7374 64.1658 47.8673 63.6717 47.2859C63.1776 46.7046 62.3038 46.6328 61.7212 47.1254Z" fill="black"/>
</g>
<defs>
<linearGradient id="paint0_linear_5199_50404" x1="44" y1="0" x2="44" y2="88" gradientUnits="userSpaceOnUse">
<stop stop-color="#FFD60A"/>
<stop offset="1" stop-color="#FFBB00"/>
</linearGradient>
<clipPath id="clip0_5199_50404">
<rect width="88" height="88" fill="white"/>
</clipPath>
</defs>
</svg>
